<?xml version="1.0" standalone="no"?>
<!DOCTYPE svg PUBLIC "-//W3C//DTD SVG 20010904//EN"
 "http://www.w3.org/TR/2001/REC-SVG-20010904/DTD/svg10.dtd">
<svg version="1.0" xmlns="http://www.w3.org/2000/svg"
 width="1080.000000pt" height="159.000000pt" viewBox="0 0 1080.000000 159.000000"
 preserveAspectRatio="xMidYMid meet">

<g transform="translate(0.000000,159.000000) scale(0.100000,-0.100000)"
fill="#000000" stroke="none">
<path d="M711 1511 c20 -20 27 -35 22 -48 -22 -63 -52 -63 -258 -4 -188 54
-214 58 -278 39 -114 -34 -172 -179 -105 -263 27 -34 35 -31 30 9 -5 45 32 86
79 86 17 0 119 -22 226 -50 107 -27 211 -50 232 -50 46 0 118 36 145 73 16 22
21 44 21 92 0 54 -4 67 -25 90 -25 26 -80 55 -105 55 -8 0 0 -13 16 -29z"/>
<path d="M8224 1519 c29 -23 33 -55 12 -85 -22 -29 -91 -22 -246 25 -160 50
-210 57 -270 41 -64 -17 -126 -83 -135 -144 -8 -54 7 -105 39 -136 l24 -22 -5
40 c-5 34 -1 45 20 66 17 17 37 26 57 26 17 0 119 -22 226 -50 213 -55 250
-58 309 -31 47 22 68 44 84 90 26 79 1 145 -68 181 -55 27 -83 27 -47 -1z"/>
<path d="M3063 1468 c-26 -58 -110 -72 -166 -28 -14 11 -27 20 -30 20 -2 0
-35 -35 -73 -77 -38 -42 -64 -74 -57 -70 7 4 29 -3 50 -17 21 -14 55 -28 76
-31 l37 -7 0 -241 c0 -134 -4 -237 -9 -231 -4 5 -75 131 -156 279 -81 149
-161 291 -177 317 -91 146 -271 111 -292 -57 -6 -49 -6 -49 9 -23 18 33 47 43
77 27 49 -25 58 -48 58 -150 l0 -97 -45 -6 c-55 -9 -100 -44 -115 -92 -10 -29
-9 -43 5 -80 14 -38 46 -74 65 -74 4 0 5 13 2 29 -4 32 26 61 65 61 23 0 23
-1 23 -130 l0 -130 -27 -5 c-105 -22 -148 -48 -177 -109 -46 -97 12 -215 114
-231 l35 -6 -26 15 c-14 8 -32 29 -39 47 -12 27 -11 36 1 58 31 56 95 62 163
16 l35 -23 82 91 c46 51 71 81 56 68 l-27 -25 -28 27 c-29 28 -106 66 -134 67
-17 0 -18 21 -18 297 0 178 4 293 9 288 5 -6 106 -187 225 -404 119 -217 222
-401 227 -408 6 -7 15 -10 20 -7 5 3 9 191 9 423 l0 419 44 11 c30 7 55 23 79
51 42 45 50 69 45 131 -3 43 -3 43 -15 17z"/>
<path d="M6773 1423 l-92 -65 22 -30 c22 -29 22 -37 25 -391 l3 -361 -34 -31
c-18 -16 -26 -24 -16 -17 13 10 18 10 29 -3 7 -9 35 -34 62 -56 l48 -41 65 57
65 57 -35 36 -35 37 0 438 c0 240 -3 437 -7 436 -5 0 -49 -30 -100 -66z"/>
<path d="M1020 1426 c-36 -28 -78 -61 -94 -73 -26 -21 -27 -24 -12 -38 14 -14
16 -60 16 -375 l0 -359 -23 -17 -23 -18 59 -54 c34 -31 64 -51 73 -48 7 3 41
27 74 53 l59 48 -29 30 -30 31 0 184 c0 176 1 185 22 209 13 14 16 20 8 14 -8
-7 -18 -13 -22 -13 -4 0 -9 107 -10 239 l-3 238 -65 -51z"/>
<path d="M4798 1430 c-39 -21 -70 -59 -83 -100 -7 -24 -7 -23 17 4 20 23 30
28 51 22 52 -13 62 -46 62 -195 l0 -135 -40 -9 c-57 -13 -102 -51 -116 -96
-10 -33 -9 -45 7 -77 11 -20 28 -43 40 -51 19 -12 20 -11 16 16 -3 21 2 33 19
45 30 20 65 21 73 0 3 -9 6 -100 6 -203 l0 -188 -46 -29 c-25 -16 -55 -44 -66
-62 -44 -71 0 -205 77 -238 51 -21 148 -17 291 11 72 15 152 25 183 23 51 -3
56 -5 66 -31 7 -22 6 -35 -8 -58 -17 -30 -17 -30 6 -23 60 18 116 92 117 152
0 44 -31 92 -77 119 -42 24 -50 25 -136 20 -51 -3 -138 -15 -195 -27 -142 -28
-212 -27 -240 3 -29 31 -29 77 1 104 31 30 100 46 159 38 l49 -7 -3 443 c-3
482 -3 480 -60 522 -39 29 -123 33 -170 7z"/>
<path d="M5258 1398 c-35 -28 -64 -52 -66 -54 -2 -1 17 -21 42 -44 l46 -43 0
-125 c0 -107 -2 -127 -17 -138 -17 -13 -17 -14 0 -8 15 5 17 -1 17 -50 0 -37
-4 -56 -12 -56 -9 0 -9 -3 0 -12 19 -19 16 -340 -3 -378 -18 -35 -43 -50 -84
-50 l-31 0 0 208 c0 153 3 212 13 221 10 11 10 13 0 7 -10 -5 -13 8 -13 54 0
58 1 60 20 50 12 -6 33 -9 48 -7 26 4 26 4 -4 6 -61 2 -63 10 -67 186 -1 88
-3 -40 -2 -284 l0 -445 30 -8 c125 -34 203 -27 252 24 l28 29 3 428 3 429 -63
56 c-35 31 -66 56 -70 56 -4 0 -35 -23 -70 -52z"/>
<path d="M8487 1334 l-58 -56 47 -54 46 -54 56 51 c32 28 58 54 59 58 1 3 -19
30 -45 58 l-47 53 -58 -56z"/>
<path d="M5479 1353 c-13 -16 -12 -17 4 -4 9 7 17 15 17 17 0 8 -8 3 -21 -13z"/>
<path d="M3594 1256 c-17 -8 -45 -31 -62 -52 -54 -65 -43 -142 32 -214 20 -19
41 -50 46 -70 5 -19 10 -109 10 -199 0 -142 -2 -167 -17 -185 -13 -14 -13 -17
-3 -9 13 10 29 2 89 -47 l73 -60 56 46 c31 26 58 49 59 53 1 3 -23 25 -53 49
l-54 43 0 205 c0 115 -4 213 -10 224 -5 10 -39 39 -74 64 -53 38 -66 53 -72
81 -4 25 -1 43 10 60 19 28 14 30 -30 11z"/>
<path d="M281 1222 c-81 -39 -174 -131 -213 -210 -31 -64 -33 -72 -33 -182 0
-108 2 -119 32 -182 56 -118 137 -186 267 -223 155 -45 338 23 421 155 24 38
50 113 60 175 l7 40 -42 -62 c-47 -72 -82 -104 -154 -141 -42 -21 -65 -26
-131 -26 -71 -1 -86 3 -134 29 -63 35 -110 89 -147 169 -43 95 -45 255 -4 296
10 10 15 20 10 22 -18 6 51 108 92 138 50 37 40 37 -31 2z"/>
<path d="M7793 1219 c-122 -61 -222 -193 -242 -320 -12 -70 0 -166 29 -243 26
-68 120 -171 185 -200 225 -105 463 -17 545 200 11 32 20 71 18 88 l-3 31 -17
-31 c-27 -49 -105 -122 -162 -151 -42 -22 -65 -27 -131 -27 -70 -1 -86 3 -133
28 -65 36 -117 93 -150 166 -45 96 -41 310 6 310 13 0 14 2 3 9 -19 12 28 90
82 136 22 19 39 35 36 35 -2 0 -32 -14 -66 -31z"/>
<path d="M413 1163 l-82 -36 -3 -212 -3 -212 93 46 92 46 0 202 c0 112 -3 203
-7 203 -5 -1 -45 -17 -90 -37z"/>
<path d="M7928 1163 l-77 -36 -3 -212 -3 -213 88 44 87 44 0 205 c0 113 -3
205 -7 204 -5 0 -43 -17 -85 -36z"/>
<path d="M1208 1087 l-57 -52 44 -50 45 -50 0 -230 c0 -301 -14 -356 -104
-410 l-41 -25 36 0 c98 0 198 61 241 148 22 45 23 60 28 312 l5 265 -70 72
-70 72 -57 -52z"/>
<path d="M7061 1081 c-23 -33 -41 -64 -41 -69 0 -15 81 -47 121 -47 61 0 115
53 138 133 l9 30 -42 -19 c-47 -20 -92 -14 -126 16 -17 15 -21 13 -59 -44z"/>
<path d="M10489 1096 c-35 -23 -92 -58 -126 -77 l-63 -34 0 -90 0 -91 53 -52
53 -52 54 55 54 55 -37 31 -37 30 0 95 c0 52 3 94 6 94 3 0 17 -14 31 -30 50
-59 104 -73 171 -43 20 9 41 15 45 14 5 -1 6 3 2 9 -3 5 -2 10 3 10 10 0 26
37 36 83 7 32 -4 35 -29 7 -26 -29 -85 -27 -123 5 l-29 24 -64 -43z"/>
<path d="M1740 1070 c-52 -32 -116 -69 -142 -81 l-48 -22 1 -196 1 -196 86
-76 87 -76 63 51 64 51 -71 65 -70 65 -1 195 c0 170 1 193 14 180 28 -30 127
-210 121 -220 -4 -6 25 12 63 40 l70 51 -65 114 c-36 63 -68 115 -72 114 -3 0
-49 -27 -101 -59z"/>
<path d="M3285 1094 c-33 -20 -61 -37 -63 -39 -5 -4 133 -235 141 -235 4 0 32
19 63 41 l54 42 -23 41 c-81 140 -108 186 -110 186 -1 0 -29 -16 -62 -36z"/>
<path d="M3926 1073 l-66 -57 25 -26 25 -26 0 -210 1 -209 82 -62 82 -62 45
26 c90 52 89 44 16 104 l-66 54 0 178 c0 174 1 179 25 211 l24 32 -59 52 c-32
29 -61 52 -64 52 -2 0 -34 -26 -70 -57z"/>
<path d="M4237 1069 l-67 -61 25 -20 25 -19 2 -229 3 -229 77 47 77 47 1 182
0 182 35 26 34 27 -69 54 c-37 30 -70 54 -72 54 -2 0 -34 -27 -71 -61z"/>
<path d="M5820 1095 c-30 -18 -90 -50 -132 -71 l-78 -38 0 -207 0 -208 88 -74
87 -74 148 85 147 84 0 186 0 186 28 30 c25 29 25 29 1 8 -14 -12 -29 -22 -33
-22 -4 0 -46 34 -94 75 -48 41 -91 75 -97 74 -5 0 -35 -16 -65 -34z m33 -108
l67 -62 -2 -210 -3 -209 -72 65 -73 64 0 208 c0 114 3 207 8 207 4 -1 37 -29
75 -63z"/>
<path d="M6254 1070 c-38 -34 -78 -72 -89 -83 -17 -18 -16 -18 6 1 14 12 28
22 31 22 4 0 20 -19 37 -42 l31 -42 0 -170 c0 -134 -3 -173 -14 -185 -13 -15
-7 -23 55 -80 78 -71 69 -71 153 2 l40 34 -37 33 -37 32 0 204 c0 112 2 204 5
204 2 0 21 -11 41 -25 45 -30 76 -32 120 -5 34 22 74 90 74 128 0 22 -1 22
-30 7 -27 -14 -33 -14 -67 0 l-37 16 -56 -56 -57 -56 -39 47 c-21 26 -44 54
-50 62 -8 11 -23 2 -80 -48z"/>
<path d="M8437 1076 l-58 -51 41 -49 40 -48 0 -180 0 -181 57 -66 c31 -36 58
-68 59 -70 2 -2 30 20 62 48 l60 52 -39 42 -39 42 0 179 c0 155 2 182 17 200
10 12 11 15 3 9 -8 -7 -17 -13 -21 -13 -4 0 -34 31 -66 68 l-59 69 -57 -51z"/>
<path d="M9387 1079 l-67 -52 50 -53 50 -53 0 -161 c0 -108 -4 -167 -12 -180
-11 -17 -5 -26 47 -82 33 -35 62 -64 65 -65 3 -1 41 32 85 74 44 42 71 69 59
60 -20 -16 -22 -16 -52 22 l-32 40 0 181 0 181 -44 47 c-24 26 -52 57 -63 70
l-18 23 -68 -52z"/>
<path d="M9960 1070 c-52 -32 -116 -69 -142 -81 l-48 -22 1 -196 1 -196 86
-76 87 -76 64 51 63 51 -70 65 -71 65 -1 193 c0 105 3 192 7 192 5 0 16 -15
27 -33 10 -17 40 -68 65 -113 l47 -81 58 42 c32 23 59 44 60 47 2 9 -126 228
-133 227 -3 0 -49 -27 -101 -59z"/>
<path d="M8808 1074 c-48 -42 -87 -79 -64 -62 5 4 28 -14 52 -40 l43 -47 1
-161 c0 -148 -2 -162 -20 -179 -22 -20 -22 -19 67 -119 l35 -39 61 61 60 60
-26 32 -27 32 0 187 c0 136 3 190 13 200 10 10 9 11 -4 6 -11 -4 -33 13 -72
55 -31 33 -58 60 -61 60 -3 0 -29 -21 -58 -46z"/>
<path d="M9088 1073 l-57 -46 49 -59 50 -60 0 -156 c0 -129 -3 -158 -16 -173
-15 -17 -15 -20 4 -46 11 -15 36 -44 56 -63 l36 -34 60 59 c59 58 59 59 41 80
-16 17 -20 44 -26 213 -5 147 -4 196 5 207 11 13 10 14 -2 10 -10 -4 -34 15
-70 54 -30 34 -59 61 -64 60 -5 0 -35 -21 -66 -46z"/>
<path d="M3133 1005 l-73 -40 -2 -195 -3 -195 55 -46 c30 -26 66 -58 79 -73
14 -14 29 -26 34 -26 11 0 157 110 157 118 0 2 -7 -1 -16 -8 -13 -12 -25 -3
-85 56 -45 45 -69 76 -69 91 0 13 6 23 13 23 9 0 9 2 0 8 -9 6 -13 55 -15 168
l-3 160 -72 -41z"/>
<path d="M602 991 l-43 -38 46 -37 46 -38 44 34 c24 18 45 36 45 39 0 6 -85
79 -92 79 -2 -1 -22 -18 -46 -39z"/>
<path d="M8121 991 l-44 -37 47 -38 46 -38 46 38 47 38 -44 37 c-24 21 -46 38
-49 38 -3 0 -25 -17 -49 -38z"/>
<path d="M8339 993 c-13 -16 -12 -17 4 -4 16 13 21 21 13 21 -2 0 -10 -8 -17
-17z"/>
<path d="M6951 921 l-52 -78 128 -206 c70 -113 130 -206 133 -206 3 -1 33 25
68 57 l62 57 -141 215 c-78 118 -142 221 -142 228 0 6 -1 12 -2 12 -2 0 -26
-35 -54 -79z"/>
<path d="M10574 865 l-51 -50 39 -34 38 -33 0 -114 c0 -63 -3 -114 -7 -114 -5
1 -20 18 -34 39 -52 74 -134 90 -212 41 -26 -16 -47 -26 -47 -22 -1 4 -7 -4
-15 -18 -28 -49 -10 -132 36 -164 33 -22 43 -20 25 6 -20 29 -20 34 4 58 27
27 66 25 107 -6 l34 -26 77 50 c42 28 101 63 130 79 l52 28 -2 118 -3 119 -60
46 -60 47 -51 -50z"/>
<path d="M1969 623 c-13 -16 -12 -17 4 -4 16 13 21 21 13 21 -2 0 -10 -8 -17
-17z"/>
<path d="M7324 578 l-19 -23 23 19 c12 11 22 21 22 23 0 8 -8 2 -26 -19z"/>
<path d="M10139 583 c-13 -16 -12 -17 4 -4 9 7 17 15 17 17 0 8 -8 3 -21 -13z"/>
<path d="M3409 573 c-13 -16 -12 -17 4 -4 16 13 21 21 13 21 -2 0 -10 -8 -17
-17z"/>
<path d="M6969 563 c-13 -16 -12 -17 4 -4 9 7 17 15 17 17 0 8 -8 3 -21 -13z"/>
</g>
</svg>
